<svg width="24" height="24" viewBox="0 0 24 24" fill="none" xmlns="http://www.w3.org/2000/svg">
  <g clip-path="url(#a)" fill="#000">
    <path d="M12.948 11.843c1.492-.513 2.277-2.113 1.754-3.574-.523-1.462-2.157-2.23-3.65-1.718-1.492.513-2.277 2.113-1.754 3.574.524 1.461 2.158 2.23 3.65 1.718Z"/>
    <path d="M18.663 0H5.338C2.394 0 0 2.057 0 4.585v14.83C0 21.943 2.394 24 5.338 24h13.325C21.606 24 24 21.943 24 19.415V4.585C24 2.057 21.606 0 18.663 0Zm3.545 19.415c0 1.56-1.59 2.83-3.545 2.83H5.338c-1.955 0-3.546-1.27-3.546-2.83V4.585c0-1.56 1.591-2.83 3.546-2.83h13.325c1.955 0 3.545 1.27 3.545 2.83v14.83Z"/>
    <path d="M16.527 3.565H7.474c-2.158 0-3.915 1.523-3.915 3.396v10.077c0 1.873 1.756 3.396 3.915 3.396h9.053c2.158 0 3.914-1.523 3.914-3.396V6.961c0-1.873-1.756-3.396-3.913-3.396ZM7.474 5.319h9.053c1.17 0 2.122.737 2.122 1.642v8.37c-.08-.075-.16-.153-.244-.225a9.61 9.61 0 0 0-3.202-1.86A9.752 9.752 0 0 0 12 12.71a9.76 9.76 0 0 0-3.201.536 9.619 9.619 0 0 0-3.203 1.86c-.084.073-.164.15-.244.226V6.96c0-.906.952-1.642 2.123-1.642h-.002Z"/>
  </g>
  <defs>
    <clipPath id="a">
      <path fill="#fff" d="M0 0h24v24H0z"/>
    </clipPath>
  </defs>
</svg>