<svg width="24" height="24" viewBox="0 0 24 24" fill="none" xmlns="http://www.w3.org/2000/svg">
  <path d="M17.694 0H6.489C4.013 0 2 2.02 2 4.504v14.992C2 21.98 4.013 24 6.489 24h11.205c2.475 0 4.488-2.02 4.488-4.504V4.504C22.182 2.02 20.169 0 17.694 0Zm2.981 4.504v1.924l-4.898-4.916h1.917a2.99 2.99 0 0 1 2.981 2.992Zm0 14.992a2.99 2.99 0 0 1-2.981 2.992H6.489a2.99 2.99 0 0 1-2.982-2.992V4.504a2.99 2.99 0 0 1 2.982-2.992h6.716V5.26h.064c.36 2.125 2.206 3.748 4.425 3.748h2.981v10.488Z" fill="#000"/>
  <path d="M11.715 4.32H5.432v1.512h6.283V4.32Zm7.009 6.298H5.432v1.512h13.292v-1.512Zm0 2.835H5.432v1.512h13.292v-1.512Zm0 2.835H5.432V17.8h13.292v-1.512Zm0 2.835H5.432v1.512h13.292v-1.512Z" fill="#000"/>
</svg>