<svg width="21" height="24" viewBox="0 0 21 24" fill="none" xmlns="http://www.w3.org/2000/svg">
  <path d="m7.865 11.945-.849.85 1.103 1.1.848-.848c.226.13.471.234.73.302v1.201h1.558v-1.2a2.96 2.96 0 0 0 .73-.303l.85.848 1.101-1.1-.848-.85c.13-.226.234-.47.302-.73h1.2V9.656h-1.2a2.978 2.978 0 0 0-.302-.73l.848-.848-1.101-1.102-.85.849a2.98 2.98 0 0 0-.73-.303v-1.2H9.697v1.2a2.985 2.985 0 0 0-.73.303l-.848-.85-1.103 1.103.85.85c-.131.225-.234.47-.302.728H6.363v1.559h1.2c.069.259.172.504.302.73Zm1.011-2.007a1.65 1.65 0 0 1 .416-.687 1.678 1.678 0 0 1 1.683-.415 1.684 1.684 0 0 1 .686.415 1.68 1.68 0 0 1 .491 1.184 1.683 1.683 0 0 1-.19.78 1.68 1.68 0 0 1-1.982.822h-.001a1.676 1.676 0 0 1-1.101-2.099h-.002Z" fill="#000"/>
  <path d="M20.912 16.873V3.998C20.912 1.793 18.83 0 16.271 0H4.683C2.123 0 .041 1.794.041 3.998v12.876c0 2.018 1.747 3.691 4.008 3.96v1.608H0V24h9.656v-1.558H5.607v-1.57h9.698v1.57h-4.05V24h9.657v-1.558h-4.05v-1.604c2.282-.251 4.05-1.933 4.05-3.965Zm-19.313 0V3.998c0-1.345 1.384-2.44 3.084-2.44h11.588c1.7 0 3.083 1.095 3.083 2.44v12.876c0 1.344-1.383 2.439-3.083 2.439H4.683c-1.7 0-3.084-1.095-3.084-2.44Z" fill="#000"/>
  <path d="M6.54 17.927h7.874c1.876 0 3.403-1.352 3.403-3.016v-8.95c0-1.664-1.527-3.016-3.403-3.016H6.54c-1.829 0-3.325 1.285-3.4 2.89h-.738V9.95h.734v.973h-.734v4.115h.738c.075 1.605 1.57 2.89 3.4 2.89ZM4.694 5.961c0-.805.828-1.458 1.846-1.458h7.874c1.017 0 1.845.654 1.845 1.458v8.95c0 .804-.828 1.457-1.845 1.457H6.54c-1.018 0-1.846-.654-1.846-1.458V5.96Z" fill="#000"/>
</svg>
