<svg width="24" height="24" viewBox="0 0 24 24" fill="none" xmlns="http://www.w3.org/2000/svg">
  <g clip-path="url(#a)" fill="#000">
    <path d="M18.663 24H5.338C2.394 24 0 21.943 0 19.415V4.585C0 2.057 2.394 0 5.338 0h13.325C21.606 0 24 2.057 24 4.585v14.83C24 21.943 21.606 24 18.663 24ZM5.338 1.754c-1.955 0-3.546 1.27-3.546 2.83v14.831c0 1.56 1.591 2.83 3.546 2.83h13.325c1.955 0 3.545-1.27 3.545-2.83V4.585c0-1.56-1.59-2.83-3.545-2.83H5.338Z"/>
    <path d="M16.527 20.435H7.474c-2.158 0-3.915-1.523-3.915-3.396V6.961c0-1.873 1.756-3.396 3.915-3.396h9.053c2.158 0 3.914 1.523 3.914 3.396v10.077c0 1.873-1.756 3.396-3.913 3.396v.001ZM7.474 5.32c-1.17 0-2.123.737-2.123 1.642v10.077c0 .906.951 1.642 2.123 1.642h9.053c1.17 0 2.122-.737 2.122-1.642V6.961c0-.906-.951-1.642-2.122-1.642H7.474Z"/>
    <path d="M14.974 10.43c0 .285-.048.535-.143.752-.095.216-.22.407-.377.57a2.287 2.287 0 0 1-.537.415 4.796 4.796 0 0 1-1.269.477c-.213.047-.408.087-.584.119v.548h-1.935v-1.642a9.137 9.137 0 0 0 1.374-.137c.208-.038.402-.086.579-.144a2.31 2.31 0 0 0 .46-.203 1.05 1.05 0 0 0 .302-.261.531.531 0 0 0 .108-.325.632.632 0 0 0-.065-.282.589.589 0 0 0-.232-.238 1.429 1.429 0 0 0-.452-.163 4.52 4.52 0 0 0-1.391-.01 6.483 6.483 0 0 0-1.288.319c-.194.07-.36.143-.502.216V8.647a4.42 4.42 0 0 1 .49-.124 9.89 9.89 0 0 1 .643-.108c.23-.032.465-.057.708-.077a8.6 8.6 0 0 1 .698-.028c.485 0 .935.04 1.35.118a3.54 3.54 0 0 1 1.08.377c.306.172.546.393.719.66.175.268.26.59.26.966h.004Zm-4.844 5.261v-1.683h1.935v1.684H10.13Z"/>
  </g>
  <defs>
    <clipPath id="a">
      <path fill="#fff" d="M0 0h24v24H0z"/>
    </clipPath>
  </defs>
</svg>