<svg width="24" height="22" viewBox="0 0 24 22" fill="none" xmlns="http://www.w3.org/2000/svg">
  <g clip-path="url(#a)" fill="#000">
    <path d="M19.32 14.71q-.353.75-.828 1.43c-.044.063-.072.06-.131.02a13.5 13.5 0 0 0-2.393-1.27c-.075-.031-.091-.06-.065-.143q.17-.534.291-1.076h-1.067q-.091.368-.205.732c-.022.07-.04.089-.115.065q-.962-.302-1.957-.46a12 12 0 0 0-1.561-.156c-.108-.002-.14-.032-.14-.144q.005-1.215-.003-2.431 0-.037.005-.06v-1.209q.003-1.227-.005-2.454c0-.109.034-.135.136-.138a13.3 13.3 0 0 0 3.458-.6c.1-.031.135-.013.165.086q.098.323.182.649h1.071a13 13 0 0 0-.283-1.003c-.03-.095-.015-.128.075-.164a13.4 13.4 0 0 0 2.396-1.266c.073-.048.106-.047.158.029a9.6 9.6 0 0 1 1.215 2.404h1.091A10.646 10.646 0 0 0 10.364.003C4.622.138-.216 4.933.007 11.05c.207 5.668 4.93 10.337 10.863 10.212 4.725-.1 8.676-3.288 9.955-7.593h-1.09a10 10 0 0 1-.415 1.04M14.75 1.966a9.7 9.7 0 0 1 2.955 2.183c.07.077.065.11-.02.164-.673.437-1.385.802-2.123 1.115-.066.028-.092.02-.123-.05a13.4 13.4 0 0 0-2.32-3.655c-.13-.148-.265-.291-.421-.461a9.7 9.7 0 0 1 2.05.704zm-3.6 1.417.002-2.08c0-.01.006-.021.013-.049a12.4 12.4 0 0 1 2.68 3.25c.224.392.424.795.61 1.205.035.077.025.108-.059.133a13.2 13.2 0 0 1-3.155.54c-.07.002-.091-.013-.091-.084q.002-.556 0-1.112zm-1.168-2.03c.035-.032.066-.07.115-.084.032.04.017.086.017.129l-.003 3.157q-.001.865.004 1.73c0 .076-.013.1-.1.097a13 13 0 0 1-3.154-.542c-.08-.023-.087-.052-.055-.125a12.5 12.5 0 0 1 3.175-4.361zm.129 8.413q-.001.128.005.254c.004.072-.021.1-.096.099q-.78-.003-1.56-.003h-.52v.002q-1.028-.002-2.055.002c-.084 0-.1-.03-.096-.106q.04-.644.14-1.283c.096-.625.247-1.235.433-1.838.03-.093.06-.107.148-.08.943.298 1.908.48 2.89.571q.295.028.592.032c.092.002.121.029.12.126q-.004 1.112-.001 2.224m-6.57-5.598a9.6 9.6 0 0 1 4.955-2.891c.015-.003.03-.004.064-.008-.218.238-.427.461-.624.694a13.3 13.3 0 0 0-2.087 3.36c-.052.119-.093.128-.205.08a14 14 0 0 1-2.088-1.102c-.075-.048-.068-.075-.016-.132m-2.488 5.847A9.65 9.65 0 0 1 2.77 5.127c.043-.063.072-.059.132-.019A13.6 13.6 0 0 0 5.34 6.397c.068.028.079.056.056.123a13 13 0 0 0-.468 1.88q-.138.792-.175 1.595c-.004.094-.028.121-.122.12q-.864-.004-1.729-.002-.876-.001-1.753.002c-.082 0-.101-.018-.096-.1zm1.862 6.136c-.075.049-.106.043-.157-.03a9.55 9.55 0 0 1-1.541-3.626 12 12 0 0 1-.166-1.244c-.008-.086.02-.102.098-.101q.877.002 1.754 0c.572 0 1.145.003 1.717-.001.1 0 .128.026.132.127.042 1.164.243 2.301.591 3.413.05.158.053.158-.099.221-.817.338-1.591.755-2.328 1.241zm2.624 2.615a9.8 9.8 0 0 1-1.982-1.649c-.071-.077-.062-.11.02-.163a14 14 0 0 1 2.068-1.091c.077-.034.111-.03.149.059a13.3 13.3 0 0 0 2.044 3.372c.187.226.386.443.595.682a9.6 9.6 0 0 1-2.894-1.21m4.574-2.688v4.051A12 12 0 0 1 8.7 18.705a12.5 12.5 0 0 1-1.93-3.131c-.036-.086-.028-.113.06-.138a13.2 13.2 0 0 1 3.164-.55c.104-.006.122.028.12.116q-.002.539-.001 1.076m-.139-2.225a13.7 13.7 0 0 0-3.44.589c-.186.056-.153.092-.215-.11a12.2 12.2 0 0 1-.51-2.709l-.022-.361c-.006-.08.01-.112.1-.11.351.004.702-.001 1.053-.002h1.016v.004c.681 0 1.363.002 2.044-.002.092 0 .113.023.113.113q-.005 1.223.005 2.444c0 .115-.039.14-.144.144m1.276 6.192c-.025.023-.048.053-.09.057-.024-.042-.012-.087-.012-.13q.001-1.633.004-3.265 0-.864-.005-1.73c0-.069.01-.097.094-.093 1.086.05 2.148.238 3.19.553.089.027.096.05.06.136a12.45 12.45 0 0 1-3.24 4.473zm6.466-2.942a9.6 9.6 0 0 1-4.896 2.874c.371-.401.703-.79 1.01-1.2a13.4 13.4 0 0 0 1.618-2.806q.063-.146.207-.086c.72.298 1.4.668 2.057 1.086.088.056.047.086.004.133"/>
    <path d="M16.788 9.239v-1.02h-4.843v4.784h4.891v-1.02h-3.564v-.934h3.334v-1.02h-3.334v-.79zm5.927-1.019v3.3l-3.23-3.3h-1.403v4.782h1.292V9.717l3.227 3.287H24V8.218z"/>
  </g>
  <defs>
    <clipPath id="a">
      <path fill="#fff" d="M0 0h24v21.265H0z"/>
    </clipPath>
  </defs>
</svg>
