<svg width="24" height="24" viewBox="0 0 24 24" fill="none" xmlns="http://www.w3.org/2000/svg">
<g clip-path="url(#clip0_1982_1073)">
<path d="M18.6629 24H5.33819C2.39418 24 0 21.9429 0 19.4154V4.58464C0 2.05711 2.39418 0 5.33819 0H18.6629C21.6058 0 24 2.05711 24 4.58464V19.4154C24 21.9429 21.6058 24 18.6629 24ZM5.33819 1.75447C3.38298 1.75447 1.79171 3.02426 1.79171 4.58464V19.4154C1.79171 20.9757 3.38298 22.2455 5.33819 22.2455H18.6629C20.6181 22.2455 22.2083 20.9757 22.2083 19.4154V4.58464C22.2083 3.02426 20.6181 1.75447 18.6629 1.75447H5.33819Z" fill="black"/>
<path d="M16.5275 20.4351H7.47373C5.31584 20.4351 3.55884 18.912 3.55884 17.0391V6.96084C3.55884 5.08795 5.31472 3.56485 7.47373 3.56485H16.5275C18.6854 3.56485 20.4413 5.08795 20.4413 6.96084V17.0381C20.4413 18.9109 18.6854 20.434 16.5275 20.434V20.4351ZM7.47373 5.31932C6.30352 5.31932 5.35055 6.05619 5.35055 6.96084V17.0381C5.35055 17.9438 6.3024 18.6796 7.47373 18.6796H16.5275C17.6977 18.6796 18.6495 17.9427 18.6495 17.0381V6.96084C18.6495 6.0551 17.6977 5.31932 16.5275 5.31932H7.47373Z" fill="black"/>
<path d="M17.2027 12.0005H15.4681V15.3965H8.53197V12.0005H6.79736L8.53197 10.8678L9.39983 10.302L10.2654 9.73618L12.0001 8.60455L13.7347 9.73618V8.60455H15.4681V10.8678L17.2027 12.0005Z" fill="black"/>
</g>
<defs>
<clipPath id="clip0_1982_1073">
<rect width="24" height="24" fill="white"/>
</clipPath>
</defs>
</svg>
