<svg width="24" height="24" viewBox="0 0 24 24" fill="none" xmlns="http://www.w3.org/2000/svg">
  <g clip-path="url(#a)" fill="#000">
    <path d="M20.175 16.258a10 10 0 0 1-.864 1.493c-.047.066-.076.062-.137.02a14 14 0 0 0-2.5-1.325c-.078-.032-.094-.063-.067-.149q.177-.558.304-1.124h-1.115a13 13 0 0 1-.213.765c-.024.072-.042.092-.12.068q-1.005-.317-2.044-.482c-.54-.084-1.083-.15-1.63-.162-.113-.002-.147-.033-.146-.15q.005-1.27-.004-2.54a.3.3 0 0 1 .006-.062v-1.262q.001-1.282-.006-2.563c0-.113.036-.14.142-.144a13.8 13.8 0 0 0 3.612-.626c.103-.033.14-.014.171.09q.103.336.191.677h1.118c-.085-.351-.18-.7-.295-1.047-.032-.1-.016-.134.079-.172.88-.352 1.71-.8 2.501-1.322.076-.05.11-.048.165.03a10 10 0 0 1 1.269 2.511h1.14C20.332 4.157 15.975.78 10.822.9 4.827 1.04-.225 6.048.008 12.436.223 18.355 5.155 23.231 11.352 23.1c4.933-.103 9.059-3.434 10.395-7.929h-1.138q-.182.552-.434 1.086M15.402 2.95a10.1 10.1 0 0 1 3.087 2.28c.074.08.067.114-.02.171-.704.456-1.447.837-2.218 1.164-.07.03-.097.02-.129-.053A14 14 0 0 0 13.7 2.696c-.137-.154-.277-.304-.44-.482a10 10 0 0 1 2.141.736zm-3.757 1.48.002-2.172c0-.012.006-.023.013-.052a13 13 0 0 1 2.8 3.394c.233.41.441.83.635 1.259.037.08.027.113-.06.138a13.7 13.7 0 0 1-3.296.564c-.072.003-.095-.013-.095-.087q.002-.581 0-1.162zm-1.22-2.12c.036-.033.068-.073.12-.088.033.042.018.09.018.135l-.004 3.296q-.001.904.005 1.806c0 .08-.013.106-.104.103a13.5 13.5 0 0 1-3.295-.566c-.083-.025-.09-.055-.056-.132a13 13 0 0 1 3.315-4.553zm.134 8.785q-.001.133.005.266c.005.075-.021.103-.1.103q-.813-.004-1.628-.003h-.543v.001q-1.072-.001-2.146.002c-.088 0-.106-.03-.1-.11q.042-.674.145-1.34c.1-.652.258-1.29.453-1.919.03-.097.062-.112.154-.083.985.31 1.993.5 3.019.596q.307.029.617.034c.096.002.127.03.127.13-.005.775-.003 1.55-.003 2.323M3.7 5.25a10 10 0 0 1 5.175-3.02c.015-.003.03-.004.066-.008-.228.249-.445.482-.652.724a13.9 13.9 0 0 0-2.18 3.51c-.053.124-.096.133-.213.084a14.6 14.6 0 0 1-2.18-1.152c-.078-.05-.071-.078-.017-.138M1.1 11.355a10.07 10.07 0 0 1 1.791-5.104c.046-.066.076-.061.139-.02q1.204.803 2.545 1.346c.072.029.083.059.06.129-.217.64-.373 1.297-.49 1.963q-.145.827-.182 1.666c-.005.097-.03.126-.128.125q-.903-.004-1.805-.002-.915-.002-1.831.002c-.086 0-.106-.019-.1-.105m1.944 6.407c-.078.052-.11.046-.164-.03a10 10 0 0 1-1.61-3.787c-.085-.43-.133-.864-.173-1.3-.008-.09.022-.106.103-.105q.915.002 1.831.001c.598 0 1.196.003 1.794-.002.103 0 .133.028.138.133.044 1.215.253 2.403.617 3.564.051.165.055.165-.104.231a14.3 14.3 0 0 0-2.43 1.296zm2.74 2.732a10.2 10.2 0 0 1-2.07-1.722c-.074-.081-.064-.115.022-.171a14.4 14.4 0 0 1 2.159-1.14c.08-.034.116-.03.155.062a14 14 0 0 0 2.135 3.522c.195.236.403.462.622.712a10 10 0 0 1-3.023-1.263m4.777-2.807v4.23a13.06 13.06 0 0 1-3.49-4.757c-.039-.09-.03-.117.062-.144a13.8 13.8 0 0 1 3.304-.575c.108-.005.127.03.126.122zm-.146-2.324a14.3 14.3 0 0 0-3.592.615c-.194.059-.16.097-.224-.115a12.8 12.8 0 0 1-.533-2.828q-.01-.189-.023-.378c-.006-.084.011-.116.105-.115.366.005.733 0 1.099-.001h1.061v.004c.712 0 1.423.002 2.135-.002.096 0 .117.024.117.118q-.005 1.274.006 2.552c0 .12-.04.146-.15.15m1.333 6.466c-.027.024-.05.056-.094.06-.025-.044-.012-.091-.012-.135l.003-3.41q0-.904-.004-1.806c0-.073.01-.102.097-.098a13.7 13.7 0 0 1 3.331.577c.094.029.102.052.063.142a13 13 0 0 1-3.384 4.67m6.752-3.072a10.04 10.04 0 0 1-5.112 3.001c.388-.419.733-.825 1.054-1.253a14 14 0 0 0 1.69-2.93q.066-.152.216-.09c.752.31 1.462.698 2.148 1.134.092.059.049.09.004.14z"/>
    <path d="M17.523 9.965a1.64 1.64 0 0 0-.625-.352 3 3 0 0 0-.934-.124h-3.576v4.978h1.344v-1.573h2.232a3 3 0 0 0 .934-.127q.384-.127.625-.352.241-.227.35-.54a2.1 2.1 0 0 0 .108-.687q0-.373-.108-.685a1.3 1.3 0 0 0-.35-.537zm-.95 1.538a.4.4 0 0 1-.16.193.8.8 0 0 1-.294.105q-.181.03-.445.03H13.73V10.55h1.943q.264 0 .445.038a.8.8 0 0 1 .294.117.44.44 0 0 1 .16.204.8.8 0 0 1 .05.3.8.8 0 0 1-.05.293zm1.855-2.015v1.084h2.112v3.894h1.344v-3.894H24V9.488z"/>
  </g>
  <defs>
    <clipPath id="a">
      <path fill="#fff" d="M0 .897h24v22.206H0z"/>
    </clipPath>
  </defs>
</svg>
