<svg width="152" height="56" viewBox="0 0 152 56" fill="none" xmlns="http://www.w3.org/2000/svg">
  <path d="M4.354 16.33c0 1.98.523 3.881 2.725 3.881h5.662c1.629 0 2.313-.825 2.614-2.464h4.385c-.674 5.823-5.531 6.366-8.125 6.366h-3.4C5.43 24.113 0 23.499 0 16.329s5.43-7.783 8.216-7.783h3.399c2.594 0 7.451.543 8.125 6.366h-4.385c-.19-1.499-.985-2.444-2.614-2.444H7.079c-2.202 0-2.725 1.9-2.725 3.861Zm27.593-7.784 7.824 15.557h-4.616l-1.589-3.38H25.31l-1.588 3.38h-4.616L26.95 8.546h5.007-.01Zm-.13 8.497-2.374-5.078-2.393 5.078h4.777-.01Zm22.987-8.497h4.143v7.783c0 7.17-5.43 7.784-8.215 7.784h-3.4c-2.785 0-8.215-.614-8.215-7.784V8.546h4.143v7.783c0 1.981.744 3.882 2.947 3.882h5.882c2.203 0 2.726-1.89 2.726-3.882V8.546h-.01Zm23.26 0v3.852H65.253v2.162h12.811v3.64H65.253v2.052h12.811v3.861H61.13V8.546h16.934Zm-5.49-.985-2.967-3.42-2.987 3.42H62.7L67.757 2h3.7l5.028 5.56h-3.921.01Zm-56.887 27.14h4.123v15.557h-4.123v-5.953H4.123v5.953H0V34.7h4.123v5.974h11.574V34.7h-.01Zm23.23 0v3.852H26.105v2.162h12.812v3.64H26.105v2.052h12.812v3.861H21.982V34.712h16.935v-.01Zm17.879 0h4.123v15.557h-6.104L45.23 39.166v11.092h-4.123V34.7h6.104l9.584 11.092V34.701Zm20.916 11.243 4.726 4.314h-5.641l-4.093-3.922h-5.47v3.922H63.09V34.7h11.132c2.815 0 7.431.433 7.431 5.823 0 3.419-1.87 4.837-3.942 5.43v-.01Zm-10.478-3.51h7.34c2.203 0 2.746-.693 2.746-1.92 0-1.227-.543-1.9-2.745-1.9h-7.341v3.82Zm16.089-7.733h4.123v15.557h-4.123V34.7Zm19.8 15.356c.483.171 1.106.242 1.921.242h3.942v3.7h-2.162c-5.45 0-7.1-1.92-7.562-3.75h-1.89c-2.786 0-8.196-.614-8.196-7.784s5.4-7.783 8.195-7.783h3.399c2.816 0 8.216.633 8.216 7.783 0 5.45-3.138 7.1-5.863 7.582v.01Zm1.529-7.582c0-1.96-.543-3.861-2.745-3.861h-5.662c-2.202 0-2.725 1.9-2.725 3.861 0 1.961.523 3.882 2.725 3.882h5.662c2.202 0 2.745-1.9 2.745-3.882Zm21.771-7.774h4.143v7.784c0 7.17-5.43 7.783-8.216 7.783h-3.398c-2.786 0-8.216-.613-8.216-7.783V34.7h4.143v7.784c0 1.98.744 3.881 2.946 3.881h5.883c2.202 0 2.725-1.9 2.725-3.881V34.7h-.01Zm23.259 0v3.852h-12.811v2.162h12.811v3.64h-12.811v2.052h12.811v3.861h-16.934V34.712h16.934v-.01Z" fill="#000"/>
</svg>
