<svg viewBox="0 0 47 47" fill="none" xmlns="http://www.w3.org/2000/svg">
  <path d="M35.41 14.91h-7.842v1.876h7.842V14.91Zm-3.797 3.703c-6.954 0-6.954 7.405-6.954 7.405s-.493 7.356 6.954 7.356c0 0 6.214.247 6.214-4.986h-3.206s.099 1.925-2.91 1.925c0 0-3.205.296-3.205-3.456h9.469s.986-8.294-6.362-8.244Zm-3.107 5.628s.394-2.962 3.206-2.962c2.81 0 2.761 2.962 2.761 2.962h-5.967Zm-7.991-1.728s2.762-.198 2.762-3.604c0-3.407-2.268-5.085-5.129-5.085H8.926v19.402h9.222s5.721-.197 5.721-6.023c.05 0 .296-4.74-3.354-4.69Zm-7.447-5.332h5.13s1.282-.05 1.282 1.925-.74 2.222-1.578 2.222h-4.784V17.18h-.05Zm4.834 12.293h-4.834V24.24h5.13s1.874.05 1.874 2.666c0 2.27-1.43 2.567-2.17 2.567Z" fill="#212322"/>
  <path d="M47 22.858c0-2.32 0-4.64-.05-6.96-.049-1.63-.098-3.21-.345-4.84-.295-1.678-.789-3.258-1.627-4.69-2.17-3.505-5.376-5.38-9.37-5.973-1.48-.247-3.009-.296-4.538-.296C29.492 0 27.914 0 26.336 0h-8.039c-1.726 0-3.502.05-5.228.197-1.38.1-2.762.346-4.093.741-2.91.889-5.179 2.617-6.757 5.184C.937 8.195.345 10.516.197 12.935a71.369 71.369 0 0 0-.148 4.591c0 1.63 0 3.259-.049 4.838v5.234c0 1.826.05 3.604.148 5.43.05 1.53.247 3.012.641 4.493.838 2.962 2.466 5.332 5.03 7.01 2.17 1.432 4.587 2.025 7.152 2.222 1.43.099 2.86.148 4.29.148h10.012c1.578 0 3.156-.05 4.685-.099 1.38-.049 2.811-.098 4.192-.394 1.776-.346 3.452-.89 4.932-1.877 3.206-2.122 4.932-5.233 5.523-8.985.247-1.53.296-3.011.296-4.542.05-2.32.05-4.64.05-6.96V23.4c0-.247.049-.296.049-.543Zm-4.29 8.344c-.05 1.53-.1 3.06-.395 4.591-.493 2.271-1.628 4.147-3.6 5.43-1.135.692-2.368 1.087-3.65 1.284-2.318.297-4.685.297-7.003.297H17.36c-1.43 0-2.86-.1-4.241-.198-1.332-.099-2.664-.346-3.897-.938-2.07-.987-3.452-2.567-4.142-4.69-.444-1.284-.592-2.617-.641-3.95-.296-5.233-.198-10.417-.198-15.65 0-1.432.05-2.863.148-4.295.099-1.63.444-3.209 1.283-4.591 1.085-1.827 2.712-3.012 4.734-3.604a16.176 16.176 0 0 1 3.452-.494c5.179-.247 10.357-.099 15.535-.099h.74c1.233 0 2.515.099 3.748.148 1.48.099 2.91.395 4.242 1.086 2.022 1.087 3.304 2.765 3.945 4.937.345 1.136.493 2.271.493 3.456.05 1.432.05 2.864.099 4.197.05 1.629.05 3.06.099 4.196 0 3.752 0 6.32-.05 8.887Z" fill="#212322"/>
</svg>
