<svg viewBox="0 0 48 48" fill="none" xmlns="http://www.w3.org/2000/svg">
  <path d="M47.143 24.313c0 2.526-.05 5.1-.099 7.626-.049 1.535-.098 3.07-.296 4.556-.594 3.764-2.276 6.884-5.54 9.013-1.485.99-3.167 1.584-4.947 1.882-1.386.247-2.77.346-4.205.396-4.898.198-9.795.099-14.742.099-1.434 0-2.869-.05-4.303-.149-2.573-.148-4.997-.792-7.173-2.228-2.573-1.684-4.205-4.06-5.046-7.032a19.81 19.81 0 0 1-.643-4.506c-.247-5.2-.099-10.4-.099-15.6 0-1.535.05-3.07.148-4.605.149-2.427.693-4.754 2.029-6.834 1.583-2.575 3.858-4.308 6.777-5.25A19.324 19.324 0 0 1 13.11.94C17.265.643 21.42.742 25.575.742c1.88 0 3.76 0 5.59.05 1.534.049 3.018.098 4.551.297 4.007.643 7.223 2.476 9.35 6.041.84 1.436 1.335 3.07 1.632 4.704.297 1.585.346 3.22.346 4.853.05 2.575.05 5.1.1 7.626Zm-4.204-1.188c-.05-1.98-.1-5.2-.198-8.369a16.277 16.277 0 0 0-.495-3.466c-.643-2.229-1.93-3.912-3.957-4.952-1.336-.694-2.77-.99-4.255-1.09-1.484-.099-3.017-.198-4.501-.198-5.194 0-10.388-.148-15.583.1a16.196 16.196 0 0 0-3.462.494c-2.078.595-3.66 1.734-4.75 3.615-.84 1.387-1.186 2.971-1.285 4.606-.1 1.436-.198 2.872-.198 4.308 0 5.249-.149 10.449.099 15.698.05 1.337.198 2.674.643 3.961.742 2.18 2.127 3.764 4.155 4.705 1.237.594 2.572.842 3.908.94 1.435.1 2.87.15 4.254.199 3.562.05 7.124.05 10.735 0 2.325 0 4.7 0 7.024-.297 1.286-.199 2.573-.545 3.66-1.288 2.03-1.288 3.167-3.12 3.612-5.447.346-1.535.346-3.07.396-4.606.148-2.575.148-5.15.198-8.913Z" fill="#212322"/>
  <path d="M35.666 24.313c0 6.686-5.441 12.083-12.12 12.083-6.677 0-12.07-5.447-12.07-12.083 0-6.685 5.442-12.082 12.12-12.082 6.629 0 12.07 5.397 12.07 12.082Zm-4.254 0a7.858 7.858 0 0 0-7.865-7.873c-4.354 0-7.866 3.516-7.866 7.824 0 4.358 3.513 7.873 7.866 7.923a7.858 7.858 0 0 0 7.865-7.874Zm7.52-12.578a2.82 2.82 0 0 1-2.82 2.823c-1.533 0-2.819-1.288-2.819-2.823s1.286-2.822 2.82-2.822c1.583.05 2.82 1.287 2.82 2.822Z" fill="#212322"/>
</svg>
